<svg width="28" height="28" viewBox="0 0 28 28" fill="none" xmlns="http://www.w3.org/2000/svg">
<path d="M13.1404 0.293812C13.3862 0.102635 13.6886 -0.00115967 14 -0.00115967C14.3114 -0.00115967 14.6138 0.102635 14.8596 0.293812L26.3788 9.25381C26.884 9.64679 27.2927 10.15 27.5736 10.7251C27.8546 11.3001 28.0004 11.9318 28 12.5718V25.1998C28 25.9424 27.705 26.6546 27.1799 27.1797C26.6548 27.7048 25.9426 27.9998 25.2 27.9998H19.6C18.8574 27.9998 18.1452 27.7048 17.6201 27.1797C17.095 26.6546 16.8 25.9424 16.8 25.1998V16.7998H11.2V25.1998C11.2 25.9424 10.905 26.6546 10.3799 27.1797C9.8548 27.7048 9.14261 27.9998 8.4 27.9998H2.8C2.05739 27.9998 1.3452 27.7048 0.820101 27.1797C0.294999 26.6546 0 25.9424 0 25.1998V12.5718C0 11.2726 0.5992 10.0518 1.624 9.25381L13.1404 0.293812ZM14 3.17221L3.3404 11.463C3.17163 11.5943 3.03518 11.7625 2.94151 11.9547C2.84783 12.1469 2.79942 12.358 2.8 12.5718V25.1998H8.4V16.7998C8.4 16.0572 8.695 15.345 9.2201 14.8199C9.7452 14.2948 10.4574 13.9998 11.2 13.9998H16.8C17.5426 13.9998 18.2548 14.2948 18.7799 14.8199C19.305 15.345 19.6 16.0572 19.6 16.7998V25.1998H25.2V12.5718C25.2006 12.358 25.1522 12.1469 25.0585 11.9547C24.9648 11.7625 24.8284 11.5943 24.6596 11.463L14 3.17501V3.17221Z" fill="url(#paint0_linear_15_172)"/>
<defs>
<linearGradient id="paint0_linear_15_172" x1="14" y1="-0.00115967" x2="14" y2="27.9998" gradientUnits="userSpaceOnUse">
<stop stop-color="#27D71C"/>
<stop offset="1" stop-color="#ABE605"/>
</linearGradient>
</defs>
</svg>
