<?xml version="1.0" standalone="no"?>
<!DOCTYPE svg PUBLIC "-//W3C//DTD SVG 20010904//EN"
 "http://www.w3.org/TR/2001/REC-SVG-20010904/DTD/svg10.dtd">
<svg version="1.0" xmlns="http://www.w3.org/2000/svg"
 width="512.000000pt" height="512.000000pt" viewBox="0 0 512.000000 512.000000"
 preserveAspectRatio="xMidYMid meet">

<g transform="translate(0.000000,512.000000) scale(0.100000,-0.100000)"
fill="#000000" stroke="none">
<path d="M1580 4091 c-75 -24 -107 -42 -161 -90 -53 -47 -101 -117 -124 -181
-19 -52 -46 -260 -72 -545 -26 -288 -26 -1142 0 -1430 42 -469 62 -564 135
-660 82 -108 192 -165 333 -173 83 -4 92 -3 240 48 592 200 1213 508 1756 873
225 150 421 297 471 351 145 157 145 395 0 552 -116 126 -682 503 -1073 716
-361 196 -784 383 -1150 507 -129 44 -160 51 -225 50 -43 0 -98 -8 -130 -18z"/>
</g>
</svg>
