<?xml version="1.0" standalone="no"?>
<!DOCTYPE svg PUBLIC "-//W3C//DTD SVG 20010904//EN"
 "http://www.w3.org/TR/2001/REC-SVG-20010904/DTD/svg10.dtd">
<svg version="1.0" xmlns="http://www.w3.org/2000/svg"
 width="512.000000pt" height="512.000000pt" viewBox="0 0 512.000000 512.000000"
 preserveAspectRatio="xMidYMid meet">

<g transform="translate(0.000000,512.000000) scale(0.100000,-0.100000)"
fill="#000000" stroke="none">
<path d="M1214 4830 c-242 -63 -432 -253 -501 -500 -17 -62 -18 -154 -18
-1810 0 -1433 2 -1755 14 -1800 50 -207 222 -381 427 -435 125 -32 287 -14
406 46 32 16 264 184 517 373 252 189 468 349 479 355 17 9 27 9 44 0 11 -6
227 -166 479 -355 253 -189 486 -357 519 -374 84 -42 160 -60 258 -60 257 0
476 158 560 405 l27 80 3 1705 c2 1111 -1 1732 -7 1782 -38 287 -241 518 -517
588 -75 19 -116 20 -1348 19 -1209 0 -1274 -1 -1342 -19z m2678 -333 c108 -53
185 -156 208 -276 14 -77 14 -3352 -1 -3421 -14 -67 -64 -138 -121 -173 -55
-34 -148 -46 -216 -28 -31 9 -175 111 -529 377 -343 256 -504 370 -543 385
-80 31 -186 30 -265 -2 -42 -18 -203 -132 -542 -386 -352 -265 -493 -365 -525
-374 -68 -18 -161 -6 -216 28 -58 35 -107 106 -121 176 -8 36 -11 554 -9 1742
l3 1690 23 57 c28 70 68 121 134 170 94 71 6 67 1403 65 l1260 -2 57 -28z"/>
<path d="M1867 3776 c-49 -18 -64 -32 -89 -80 -37 -73 -13 -153 62 -203 l33
-23 687 0 687 0 33 23 c48 32 72 69 77 119 7 58 -23 118 -74 149 l-38 24 -670
2 c-543 2 -677 0 -708 -11z"/>
</g>
</svg>
