<?xml version="1.0" standalone="no"?>
<!DOCTYPE svg PUBLIC "-//W3C//DTD SVG 20010904//EN"
 "http://www.w3.org/TR/2001/REC-SVG-20010904/DTD/svg10.dtd">
<svg version="1.0" xmlns="http://www.w3.org/2000/svg"
 width="512.000000pt" height="512.000000pt" viewBox="0 0 512.000000 512.000000"
 preserveAspectRatio="xMidYMid meet">

<g transform="translate(0.000000,512.000000) scale(0.100000,-0.100000)"
fill="#000000" stroke="none">
<path d="M2486 5105 c-31 -11 -126 -100 -413 -387 -205 -205 -380 -388 -389
-407 -42 -89 -25 -181 47 -253 49 -49 95 -68 164 -68 75 1 121 32 283 193
l152 152 0 -1161 c0 -1301 -4 -1228 71 -1303 39 -38 112 -71 159 -71 47 0 120
33 159 71 75 75 71 1 71 1313 l0 1171 168 -167 c104 -104 181 -173 204 -183
143 -59 308 52 308 207 0 32 -7 75 -15 96 -11 25 -135 156 -378 401 -388 390
-415 411 -507 410 -25 0 -63 -6 -84 -14z"/>
<path d="M908 3334 c-315 -57 -568 -261 -633 -511 -22 -85 -22 -2210 0 -2293
24 -91 73 -178 144 -252 112 -119 244 -195 426 -245 l100 -28 1600 0 c1274 0
1613 3 1665 13 101 20 187 51 285 100 73 37 108 64 180 137 99 98 153 189 175
295 8 40 10 356 8 1160 l-3 1105 -23 58 c-77 189 -238 336 -460 417 -153 56
-202 60 -688 60 l-444 0 0 -225 0 -225 413 0 c446 0 495 -5 605 -55 61 -28
115 -74 138 -117 12 -23 14 -188 14 -1055 0 -1003 -1 -1029 -20 -1060 -43 -72
-166 -133 -305 -153 -100 -14 -2949 -13 -3051 1 -135 19 -254 77 -301 148
l-23 34 2 1043 3 1043 44 45 c24 24 70 56 102 71 113 50 160 55 607 55 l412 0
0 225 0 225 -447 -1 c-335 -1 -467 -4 -525 -15z"/>
</g>
</svg>
